{
	"patcher" : 	{
		"fileversion" : 1,
		"appversion" : 		{
			"major" : 7,
			"minor" : 0,
			"revision" : 0,
			"architecture" : "x86",
			"modernui" : 1
		}
,
		"rect" : [ 111.0, 320.0, 453.0, 291.0 ],
		"bglocked" : 0,
		"openinpresentation" : 0,
		"default_fontsize" : 12.0,
		"default_fontface" : 0,
		"default_fontname" : "Arial",
		"gridonopen" : 0,
		"gridsize" : [ 15.0, 15.0 ],
		"gridsnaponopen" : 0,
		"statusbarvisible" : 2,
		"toolbarvisible" : 1,
		"lefttoolbarpinned" : 0,
		"toptoolbarpinned" : 0,
		"righttoolbarpinned" : 0,
		"bottomtoolbarpinned" : 0,
		"toolbars_unpinned_last_save" : 0,
		"tallnewobj" : 0,
		"boxanimatetime" : 200,
		"enablehscroll" : 1,
		"enablevscroll" : 1,
		"devicewidth" : 0.0,
		"description" : "",
		"digest" : "",
		"tags" : "",
		"style" : "",
		"boxes" : [ 			{
				"box" : 				{
					"id" : "obj-1",
					"maxclass" : "comment",
					"numinlets" : 1,
					"numoutlets" : 0,
					"patching_rect" : [ 26.0, 29.0, 313.0, 20.0 ],
					"style" : "",
					"text" : "double-click a subpatch to go through the pfft~ examples."
				}

			}
, 			{
				"box" : 				{
					"id" : "obj-2",
					"maxclass" : "newobj",
					"numinlets" : 0,
					"numoutlets" : 0,
					"patcher" : 					{
						"fileversion" : 1,
						"appversion" : 						{
							"major" : 7,
							"minor" : 0,
							"revision" : 0,
							"architecture" : "x86",
							"modernui" : 1
						}
,
						"rect" : [ 34.0, 34.0, 847.0, 424.0 ],
						"bglocked" : 0,
						"openinpresentation" : 0,
						"default_fontsize" : 12.0,
						"default_fontface" : 0,
						"default_fontname" : "Arial",
						"gridonopen" : 0,
						"gridsize" : [ 15.0, 15.0 ],
						"gridsnaponopen" : 0,
						"statusbarvisible" : 2,
						"toolbarvisible" : 1,
						"lefttoolbarpinned" : 0,
						"toptoolbarpinned" : 0,
						"righttoolbarpinned" : 0,
						"bottomtoolbarpinned" : 0,
						"toolbars_unpinned_last_save" : 0,
						"tallnewobj" : 0,
						"boxanimatetime" : 200,
						"enablehscroll" : 1,
						"enablevscroll" : 1,
						"devicewidth" : 0.0,
						"description" : "",
						"digest" : "",
						"tags" : "",
						"style" : "",
						"boxes" : [ 							{
								"box" : 								{
									"fontname" : "Arial",
									"fontsize" : 12.0,
									"id" : "obj-33",
									"linecount" : 2,
									"maxclass" : "comment",
									"numinlets" : 1,
									"numoutlets" : 0,
									"patching_rect" : [ 332.0, 338.011841, 204.0, 33.0 ],
									"style" : "",
									"text" : "(you can load mypvoc2~ for an alternate example)"
								}

							}
, 							{
								"box" : 								{
									"fontname" : "Arial",
									"fontsize" : 12.0,
									"id" : "obj-49",
									"linecount" : 2,
									"maxclass" : "comment",
									"numinlets" : 1,
									"numoutlets" : 0,
									"patching_rect" : [ 311.0, 297.500977, 267.0, 33.0 ],
									"style" : "",
									"text" : "using 4 overlap will generally produce better results for phase-vocoder based time stretching"
								}

							}
, 							{
								"box" : 								{
									"id" : "obj-25",
									"maxclass" : "message",
									"numinlets" : 2,
									"numoutlets" : 1,
									"outlettype" : [ "" ],
									"patching_rect" : [ 84.0, 347.493103, 34.0, 22.0 ],
									"style" : "messageYellow",
									"text" : "stop"
								}

							}
, 							{
								"box" : 								{
									"id" : "obj-27",
									"maxclass" : "message",
									"numinlets" : 2,
									"numoutlets" : 1,
									"outlettype" : [ "" ],
									"patching_rect" : [ 63.5, 315.170624, 75.0, 22.0 ],
									"style" : "messageGreen",
									"text" : "startwindow"
								}

							}
, 							{
								"box" : 								{
									"fontname" : "Arial",
									"fontsize" : 11.595187,
									"id" : "obj-28",
									"maxclass" : "newobj",
									"numinlets" : 2,
									"numoutlets" : 0,
									"patching_rect" : [ 152.0, 394.899414, 36.0, 21.0 ],
									"style" : "",
									"text" : "dac~"
								}

							}
, 							{
								"box" : 								{
									"id" : "obj-30",
									"interpinlet" : 1,
									"maxclass" : "gain~",
									"numinlets" : 2,
									"numoutlets" : 2,
									"orientation" : 2,
									"outlettype" : [ "signal", "int" ],
									"parameter_enable" : 0,
									"patching_rect" : [ 264.0, 304.396454, 26.0, 66.0 ],
									"style" : ""
								}

							}
, 							{
								"box" : 								{
									"id" : "obj-31",
									"interpinlet" : 1,
									"maxclass" : "gain~",
									"numinlets" : 2,
									"numoutlets" : 2,
									"orientation" : 2,
									"outlettype" : [ "signal", "int" ],
									"parameter_enable" : 0,
									"patching_rect" : [ 152.0, 304.396454, 26.0, 66.0 ],
									"style" : ""
								}

							}
, 							{
								"box" : 								{
									"fontname" : "Arial",
									"fontsize" : 11.595187,
									"id" : "obj-32",
									"maxclass" : "comment",
									"numinlets" : 1,
									"numoutlets" : 0,
									"patching_rect" : [ 63.5, 295.346161, 75.0, 19.0 ],
									"style" : "",
									"text" : "• start audio."
								}

							}
, 							{
								"box" : 								{
									"id" : "obj-51",
									"maxclass" : "toggle",
									"numinlets" : 1,
									"numoutlets" : 1,
									"outlettype" : [ "int" ],
									"parameter_enable" : 0,
									"patching_rect" : [ 180.0, 214.755417, 24.0, 24.0 ],
									"presentation_rect" : [ 194.0, 273.0, 24.0, 24.0 ],
									"style" : "toggleRed"
								}

							}
, 							{
								"box" : 								{
									"fontname" : "Arial",
									"fontsize" : 12.0,
									"id" : "obj-2",
									"maxclass" : "comment",
									"numinlets" : 1,
									"numoutlets" : 0,
									"patching_rect" : [ 330.0, 105.289948, 47.0, 20.0 ],
									"style" : "",
									"text" : "frames"
								}

							}
, 							{
								"box" : 								{
									"fontname" : "Arial",
									"fontsize" : 12.0,
									"hidden" : 1,
									"id" : "obj-4",
									"maxclass" : "newobj",
									"numinlets" : 1,
									"numoutlets" : 1,
									"outlettype" : [ "bang" ],
									"patching_rect" : [ 173.0, 24.268246, 60.0, 22.0 ],
									"style" : "",
									"text" : "loadbang"
								}

							}
, 							{
								"box" : 								{
									"fontname" : "Arial",
									"fontsize" : 12.0,
									"hidden" : 1,
									"id" : "obj-5",
									"maxclass" : "message",
									"numinlets" : 2,
									"numoutlets" : 1,
									"outlettype" : [ "" ],
									"patching_rect" : [ 211.0, 131.147934, 32.5, 22.0 ],
									"style" : "",
									"text" : "0"
								}

							}
, 							{
								"box" : 								{
									"fontname" : "Arial",
									"fontsize" : 12.0,
									"hidden" : 1,
									"id" : "obj-6",
									"maxclass" : "message",
									"numinlets" : 2,
									"numoutlets" : 1,
									"outlettype" : [ "" ],
									"patching_rect" : [ 275.0, 81.155815, 37.0, 22.0 ],
									"style" : "",
									"text" : "1722"
								}

							}
, 							{
								"box" : 								{
									"fontname" : "Arial",
									"fontsize" : 12.0,
									"hidden" : 1,
									"id" : "obj-7",
									"maxclass" : "message",
									"numinlets" : 2,
									"numoutlets" : 1,
									"outlettype" : [ "" ],
									"patching_rect" : [ 304.75, 5.305721, 32.5, 22.0 ],
									"style" : "",
									"text" : "0.5"
								}

							}
, 							{
								"box" : 								{
									"fontname" : "Arial",
									"fontsize" : 12.0,
									"id" : "obj-8",
									"maxclass" : "number",
									"numinlets" : 1,
									"numoutlets" : 2,
									"outlettype" : [ "", "bang" ],
									"parameter_enable" : 0,
									"patching_rect" : [ 275.0, 172.819183, 51.0, 22.0 ],
									"style" : "",
									"tricolor" : [ 0.764706, 0.592157, 0.101961, 1.0 ],
									"triscale" : 0.9
								}

							}
, 							{
								"box" : 								{
									"fontname" : "Arial",
									"fontsize" : 12.0,
									"id" : "obj-9",
									"maxclass" : "number",
									"numinlets" : 1,
									"numoutlets" : 2,
									"outlettype" : [ "", "bang" ],
									"parameter_enable" : 0,
									"patching_rect" : [ 275.0, 104.428009, 53.0, 22.0 ],
									"style" : "",
									"tricolor" : [ 0.764706, 0.592157, 0.101961, 1.0 ],
									"triscale" : 0.9
								}

							}
, 							{
								"box" : 								{
									"fontname" : "Arial",
									"fontsize" : 12.0,
									"id" : "obj-10",
									"maxclass" : "newobj",
									"numinlets" : 1,
									"numoutlets" : 2,
									"outlettype" : [ "bang", "float" ],
									"patching_rect" : [ 379.0, 33.749504, 32.5, 22.0 ],
									"style" : "",
									"text" : "t b f"
								}

							}
, 							{
								"box" : 								{
									"fontname" : "Arial",
									"fontsize" : 12.0,
									"id" : "obj-12",
									"maxclass" : "newobj",
									"numinlets" : 1,
									"numoutlets" : 1,
									"outlettype" : [ "" ],
									"patching_rect" : [ 475.0, 29.439842, 85.0, 22.0 ],
									"style" : "",
									"text" : "loadmess 256"
								}

							}
, 							{
								"box" : 								{
									"fontname" : "Arial",
									"fontsize" : 12.0,
									"id" : "obj-13",
									"maxclass" : "newobj",
									"numinlets" : 1,
									"numoutlets" : 2,
									"outlettype" : [ "signal", "float" ],
									"patching_rect" : [ 475.0, 60.469429, 79.0, 22.0 ],
									"style" : "",
									"text" : "sampstoms~"
								}

							}
, 							{
								"box" : 								{
									"fontname" : "Arial",
									"fontsize" : 12.0,
									"format" : 6,
									"id" : "obj-14",
									"maxclass" : "flonum",
									"numinlets" : 1,
									"numoutlets" : 2,
									"outlettype" : [ "", "bang" ],
									"parameter_enable" : 0,
									"patching_rect" : [ 521.0, 219.41452, 68.0, 22.0 ],
									"style" : "",
									"triscale" : 0.9
								}

							}
, 							{
								"box" : 								{
									"fontname" : "Arial",
									"fontsize" : 12.0,
									"id" : "obj-15",
									"maxclass" : "newobj",
									"numinlets" : 2,
									"numoutlets" : 1,
									"outlettype" : [ "float" ],
									"patching_rect" : [ 521.0, 185.193451, 47.0, 22.0 ],
									"style" : "",
									"text" : "/ 1000."
								}

							}
, 							{
								"box" : 								{
									"fontname" : "Arial",
									"fontsize" : 12.0,
									"id" : "obj-16",
									"maxclass" : "newobj",
									"numinlets" : 2,
									"numoutlets" : 1,
									"outlettype" : [ "float" ],
									"patching_rect" : [ 379.0, 68.51693, 32.5, 22.0 ],
									"style" : "",
									"text" : "/ 1."
								}

							}
, 							{
								"box" : 								{
									"fontname" : "Arial",
									"fontsize" : 12.0,
									"id" : "obj-17",
									"maxclass" : "newobj",
									"numinlets" : 2,
									"numoutlets" : 1,
									"outlettype" : [ "float" ],
									"patching_rect" : [ 521.0, 150.972382, 32.5, 22.0 ],
									"style" : "",
									"text" : "* 1."
								}

							}
, 							{
								"box" : 								{
									"fontname" : "Arial",
									"fontsize" : 12.0,
									"id" : "obj-18",
									"maxclass" : "newobj",
									"numinlets" : 2,
									"numoutlets" : 1,
									"outlettype" : [ "float" ],
									"patching_rect" : [ 379.0, 207.586609, 32.5, 22.0 ],
									"style" : "",
									"text" : "+ 0."
								}

							}
, 							{
								"box" : 								{
									"fontname" : "Arial",
									"fontsize" : 12.0,
									"format" : 6,
									"id" : "obj-19",
									"maxclass" : "flonum",
									"numinlets" : 1,
									"numoutlets" : 2,
									"outlettype" : [ "", "bang" ],
									"parameter_enable" : 0,
									"patching_rect" : [ 535.0, 88.3386, 56.0, 22.0 ],
									"style" : "",
									"triscale" : 0.9
								}

							}
, 							{
								"box" : 								{
									"fontname" : "Arial",
									"fontsize" : 12.0,
									"id" : "obj-20",
									"maxclass" : "number",
									"numinlets" : 1,
									"numoutlets" : 2,
									"outlettype" : [ "", "bang" ],
									"parameter_enable" : 0,
									"patching_rect" : [ 379.0, 242.354004, 53.0, 22.0 ],
									"style" : "",
									"triangle" : 0,
									"triscale" : 0.9
								}

							}
, 							{
								"box" : 								{
									"fontname" : "Arial",
									"fontsize" : 12.0,
									"id" : "obj-21",
									"maxclass" : "newobj",
									"numinlets" : 2,
									"numoutlets" : 1,
									"outlettype" : [ "float" ],
									"patching_rect" : [ 379.0, 172.819183, 32.5, 22.0 ],
									"style" : "",
									"text" : "* 1."
								}

							}
, 							{
								"box" : 								{
									"format" : 6,
									"id" : "obj-22",
									"maxclass" : "flonum",
									"numinlets" : 1,
									"numoutlets" : 2,
									"outlettype" : [ "", "bang" ],
									"parameter_enable" : 0,
									"patching_rect" : [ 304.75, 29.439842, 58.0, 22.0 ],
									"style" : "numberGold",
									"tricolor" : [ 0.764706, 0.592157, 0.101961, 1.0 ],
									"triscale" : 0.9
								}

							}
, 							{
								"box" : 								{
									"id" : "obj-23",
									"maxclass" : "newobj",
									"numinlets" : 2,
									"numoutlets" : 1,
									"outlettype" : [ "float" ],
									"patching_rect" : [ 379.0, 138.051758, 83.0, 22.0 ],
									"style" : "newobjBlue",
									"text" : "snapshot~ 10"
								}

							}
, 							{
								"box" : 								{
									"id" : "obj-24",
									"maxclass" : "newobj",
									"numinlets" : 2,
									"numoutlets" : 1,
									"outlettype" : [ "signal" ],
									"patching_rect" : [ 379.0, 103.284348, 54.0, 22.0 ],
									"style" : "newobjBlue",
									"text" : "phasor~"
								}

							}
, 							{
								"box" : 								{
									"fontname" : "Arial",
									"fontsize" : 12.0,
									"id" : "obj-26",
									"maxclass" : "newobj",
									"numinlets" : 1,
									"numoutlets" : 0,
									"patching_rect" : [ 180.0, 246.646942, 60.0, 22.0 ],
									"style" : "",
									"text" : "s recstart"
								}

							}
, 							{
								"box" : 								{
									"id" : "obj-29",
									"maxclass" : "message",
									"numinlets" : 2,
									"numoutlets" : 1,
									"outlettype" : [ "" ],
									"patching_rect" : [ 231.25, 214.755417, 37.0, 22.0 ],
									"style" : "messageGold",
									"text" : "open"
								}

							}
, 							{
								"box" : 								{
									"id" : "obj-34",
									"maxclass" : "newobj",
									"numinlets" : 2,
									"numoutlets" : 1,
									"outlettype" : [ "signal" ],
									"patching_rect" : [ 265.0, 277.121429, 133.0, 22.0 ],
									"style" : "newobjYellow",
									"text" : "pfft~ mypvoc~ 1024 4"
								}

							}
, 							{
								"box" : 								{
									"fontname" : "Arial",
									"fontsize" : 12.0,
									"id" : "obj-35",
									"maxclass" : "newobj",
									"numinlets" : 2,
									"numoutlets" : 2,
									"outlettype" : [ "signal", "bang" ],
									"patching_rect" : [ 264.0, 250.094666, 49.0, 22.0 ],
									"saved_object_attributes" : 									{
										"basictuning" : 440,
										"followglobaltempo" : 0,
										"formant" : [ 1.0 ],
										"formantcorrection" : 0,
										"mode" : "basic",
										"originallength" : [ 0.0, "ticks" ],
										"originaltempo" : 120.0,
										"pitchcorrection" : 0,
										"quality" : "basic",
										"timestretch" : [ 0 ]
									}
,
									"style" : "",
									"text" : "sfplay~"
								}

							}
, 							{
								"box" : 								{
									"fontname" : "Arial",
									"fontsize" : 12.0,
									"id" : "obj-37",
									"maxclass" : "comment",
									"numinlets" : 1,
									"numoutlets" : 0,
									"patching_rect" : [ 266.0, 214.755417, 88.0, 20.0 ],
									"style" : "",
									"text" : "soundfile input"
								}

							}
, 							{
								"box" : 								{
									"fontname" : "Arial",
									"fontsize" : 12.0,
									"id" : "obj-38",
									"linecount" : 2,
									"maxclass" : "comment",
									"numinlets" : 1,
									"numoutlets" : 0,
									"patching_rect" : [ 597.0, 82.017754, 175.0, 33.0 ],
									"style" : "",
									"text" : "amount of time (ms.) between successive FFT frames"
								}

							}
, 							{
								"box" : 								{
									"fontname" : "Arial",
									"fontsize" : 12.0,
									"id" : "obj-39",
									"linecount" : 2,
									"maxclass" : "comment",
									"numinlets" : 1,
									"numoutlets" : 0,
									"patching_rect" : [ 569.0, 33.749504, 223.0, 33.0 ],
									"style" : "",
									"text" : "256 samples between successive FFT frames (1024points / 4overlap)"
								}

							}
, 							{
								"box" : 								{
									"fontname" : "Arial",
									"fontsize" : 12.0,
									"id" : "obj-40",
									"linecount" : 4,
									"maxclass" : "comment",
									"numinlets" : 1,
									"numoutlets" : 0,
									"patching_rect" : [ 595.0, 175.106506, 227.0, 60.0 ],
									"style" : "",
									"text" : "phasor rate correction for different loop sizes (so a rate of 1. always plays back at normal speed regardless of our loop size)"
								}

							}
, 							{
								"box" : 								{
									"fontname" : "Arial",
									"fontsize" : 12.0,
									"id" : "obj-41",
									"maxclass" : "comment",
									"numinlets" : 1,
									"numoutlets" : 0,
									"patching_rect" : [ 220.75, 104.428009, 58.0, 20.0 ],
									"style" : "",
									"text" : "loop size"
								}

							}
, 							{
								"box" : 								{
									"fontname" : "Arial",
									"fontsize" : 12.0,
									"id" : "obj-42",
									"maxclass" : "comment",
									"numinlets" : 1,
									"numoutlets" : 0,
									"patching_rect" : [ 211.0, 172.819183, 66.0, 20.0 ],
									"style" : "",
									"text" : "loop offset"
								}

							}
, 							{
								"box" : 								{
									"fontname" : "Arial",
									"fontsize" : 12.0,
									"id" : "obj-43",
									"maxclass" : "comment",
									"numinlets" : 1,
									"numoutlets" : 0,
									"patching_rect" : [ 220.75, 29.439842, 82.0, 20.0 ],
									"style" : "",
									"text" : "playback rate"
								}

							}
, 							{
								"box" : 								{
									"fontname" : "Arial",
									"fontsize" : 12.0,
									"id" : "obj-44",
									"maxclass" : "comment",
									"numinlets" : 1,
									"numoutlets" : 0,
									"patching_rect" : [ 330.0, 172.819183, 47.0, 20.0 ],
									"style" : "",
									"text" : "frames"
								}

							}
, 							{
								"box" : 								{
									"fontname" : "Arial",
									"fontsize" : 12.0,
									"id" : "obj-45",
									"linecount" : 2,
									"maxclass" : "comment",
									"numinlets" : 1,
									"numoutlets" : 0,
									"patching_rect" : [ 56.0, 206.136093, 125.0, 33.0 ],
									"style" : "",
									"text" : "start recording with soundfile playback"
								}

							}
, 							{
								"box" : 								{
									"fontname" : "Arial",
									"fontsize" : 12.0,
									"id" : "obj-46",
									"maxclass" : "comment",
									"numinlets" : 1,
									"numoutlets" : 0,
									"patching_rect" : [ 264.0, 5.305721, 291.0, 20.0 ],
									"style" : "",
									"text" : "\"classic\" time stretching with a simple phase vocoder"
								}

							}
, 							{
								"box" : 								{
									"fontname" : "Arial",
									"fontsize" : 12.0,
									"id" : "obj-47",
									"linecount" : 3,
									"maxclass" : "comment",
									"numinlets" : 1,
									"numoutlets" : 0,
									"patching_rect" : [ 16.0, 101.842209, 185.0, 47.0 ],
									"style" : "",
									"text" : "we can alter the playback rate of our recorded fft data without changing the pitch of the sound!"
								}

							}
, 							{
								"box" : 								{
									"fontname" : "Arial",
									"fontsize" : 12.0,
									"id" : "obj-48",
									"linecount" : 2,
									"maxclass" : "comment",
									"numinlets" : 1,
									"numoutlets" : 0,
									"patching_rect" : [ 441.0, 250.094666, 127.0, 33.0 ],
									"style" : "",
									"text" : "the FFT frame we're currently playing back"
								}

							}
 ],
						"lines" : [ 							{
								"patchline" : 								{
									"destination" : [ "obj-16", 1 ],
									"disabled" : 0,
									"hidden" : 0,
									"source" : [ "obj-10", 1 ]
								}

							}
, 							{
								"patchline" : 								{
									"destination" : [ "obj-16", 0 ],
									"disabled" : 0,
									"hidden" : 0,
									"source" : [ "obj-10", 0 ]
								}

							}
, 							{
								"patchline" : 								{
									"destination" : [ "obj-13", 0 ],
									"disabled" : 0,
									"hidden" : 0,
									"source" : [ "obj-12", 0 ]
								}

							}
, 							{
								"patchline" : 								{
									"destination" : [ "obj-19", 0 ],
									"disabled" : 0,
									"hidden" : 0,
									"source" : [ "obj-13", 1 ]
								}

							}
, 							{
								"patchline" : 								{
									"destination" : [ "obj-10", 0 ],
									"disabled" : 0,
									"hidden" : 0,
									"midpoints" : [ 530.5, 243.199219, 466.0, 243.199219, 466.0, 25.13018, 388.5, 25.13018 ],
									"source" : [ "obj-14", 0 ]
								}

							}
, 							{
								"patchline" : 								{
									"destination" : [ "obj-14", 0 ],
									"disabled" : 0,
									"hidden" : 0,
									"source" : [ "obj-15", 0 ]
								}

							}
, 							{
								"patchline" : 								{
									"destination" : [ "obj-24", 0 ],
									"disabled" : 0,
									"hidden" : 0,
									"source" : [ "obj-16", 0 ]
								}

							}
, 							{
								"patchline" : 								{
									"destination" : [ "obj-15", 0 ],
									"disabled" : 0,
									"hidden" : 0,
									"source" : [ "obj-17", 0 ]
								}

							}
, 							{
								"patchline" : 								{
									"destination" : [ "obj-20", 0 ],
									"disabled" : 0,
									"hidden" : 0,
									"source" : [ "obj-18", 0 ]
								}

							}
, 							{
								"patchline" : 								{
									"destination" : [ "obj-17", 1 ],
									"disabled" : 0,
									"hidden" : 0,
									"source" : [ "obj-19", 0 ]
								}

							}
, 							{
								"patchline" : 								{
									"destination" : [ "obj-23", 1 ],
									"disabled" : 0,
									"hidden" : 0,
									"midpoints" : [ 544.5, 112.18541, 452.5, 112.18541 ],
									"source" : [ "obj-19", 0 ]
								}

							}
, 							{
								"patchline" : 								{
									"destination" : [ "obj-34", 1 ],
									"disabled" : 0,
									"hidden" : 0,
									"source" : [ "obj-20", 0 ]
								}

							}
, 							{
								"patchline" : 								{
									"destination" : [ "obj-18", 0 ],
									"disabled" : 0,
									"hidden" : 0,
									"source" : [ "obj-21", 0 ]
								}

							}
, 							{
								"patchline" : 								{
									"destination" : [ "obj-16", 0 ],
									"disabled" : 0,
									"hidden" : 0,
									"midpoints" : [ 314.25, 55.369667, 388.5, 55.369667 ],
									"source" : [ "obj-22", 0 ]
								}

							}
, 							{
								"patchline" : 								{
									"destination" : [ "obj-21", 0 ],
									"disabled" : 0,
									"hidden" : 0,
									"source" : [ "obj-23", 0 ]
								}

							}
, 							{
								"patchline" : 								{
									"destination" : [ "obj-23", 0 ],
									"disabled" : 0,
									"hidden" : 0,
									"source" : [ "obj-24", 0 ]
								}

							}
, 							{
								"patchline" : 								{
									"destination" : [ "obj-28", 0 ],
									"disabled" : 0,
									"hidden" : 0,
									"midpoints" : [ 93.5, 381.970428, 161.5, 381.970428 ],
									"source" : [ "obj-25", 0 ]
								}

							}
, 							{
								"patchline" : 								{
									"destination" : [ "obj-28", 0 ],
									"disabled" : 0,
									"hidden" : 0,
									"midpoints" : [ 73.0, 381.970428, 161.5, 381.970428 ],
									"source" : [ "obj-27", 0 ]
								}

							}
, 							{
								"patchline" : 								{
									"destination" : [ "obj-35", 0 ],
									"disabled" : 0,
									"hidden" : 0,
									"source" : [ "obj-29", 0 ]
								}

							}
, 							{
								"patchline" : 								{
									"destination" : [ "obj-28", 1 ],
									"disabled" : 0,
									"hidden" : 0,
									"midpoints" : [ 273.5, 381.970428, 178.5, 381.970428 ],
									"source" : [ "obj-30", 0 ]
								}

							}
, 							{
								"patchline" : 								{
									"destination" : [ "obj-28", 0 ],
									"disabled" : 0,
									"hidden" : 0,
									"midpoints" : [ 273.5, 381.970428, 161.5, 381.970428 ],
									"source" : [ "obj-30", 0 ]
								}

							}
, 							{
								"patchline" : 								{
									"destination" : [ "obj-28", 1 ],
									"disabled" : 0,
									"hidden" : 0,
									"midpoints" : [ 161.5, 381.970428, 178.5, 381.970428 ],
									"source" : [ "obj-31", 0 ]
								}

							}
, 							{
								"patchline" : 								{
									"destination" : [ "obj-28", 0 ],
									"disabled" : 0,
									"hidden" : 0,
									"midpoints" : [ 161.5, 363.869812, 161.5, 363.869812 ],
									"source" : [ "obj-31", 0 ]
								}

							}
, 							{
								"patchline" : 								{
									"destination" : [ "obj-30", 0 ],
									"disabled" : 0,
									"hidden" : 0,
									"source" : [ "obj-34", 0 ]
								}

							}
, 							{
								"patchline" : 								{
									"destination" : [ "obj-31", 0 ],
									"disabled" : 0,
									"hidden" : 0,
									"midpoints" : [ 273.5, 271.643005, 161.5, 271.643005 ],
									"source" : [ "obj-35", 0 ]
								}

							}
, 							{
								"patchline" : 								{
									"destination" : [ "obj-34", 0 ],
									"disabled" : 0,
									"hidden" : 0,
									"source" : [ "obj-35", 0 ]
								}

							}
, 							{
								"patchline" : 								{
									"destination" : [ "obj-5", 0 ],
									"disabled" : 0,
									"hidden" : 1,
									"source" : [ "obj-4", 0 ]
								}

							}
, 							{
								"patchline" : 								{
									"destination" : [ "obj-6", 0 ],
									"disabled" : 0,
									"hidden" : 1,
									"source" : [ "obj-4", 0 ]
								}

							}
, 							{
								"patchline" : 								{
									"destination" : [ "obj-7", 0 ],
									"disabled" : 0,
									"hidden" : 1,
									"source" : [ "obj-4", 0 ]
								}

							}
, 							{
								"patchline" : 								{
									"destination" : [ "obj-8", 0 ],
									"disabled" : 0,
									"hidden" : 1,
									"source" : [ "obj-5", 0 ]
								}

							}
, 							{
								"patchline" : 								{
									"destination" : [ "obj-26", 0 ],
									"disabled" : 0,
									"hidden" : 0,
									"source" : [ "obj-51", 0 ]
								}

							}
, 							{
								"patchline" : 								{
									"destination" : [ "obj-35", 0 ],
									"disabled" : 0,
									"hidden" : 0,
									"midpoints" : [ 189.5, 242.33728, 273.5, 242.33728 ],
									"source" : [ "obj-51", 0 ]
								}

							}
, 							{
								"patchline" : 								{
									"destination" : [ "obj-9", 0 ],
									"disabled" : 0,
									"hidden" : 1,
									"source" : [ "obj-6", 0 ]
								}

							}
, 							{
								"patchline" : 								{
									"destination" : [ "obj-22", 0 ],
									"disabled" : 0,
									"hidden" : 1,
									"source" : [ "obj-7", 0 ]
								}

							}
, 							{
								"patchline" : 								{
									"destination" : [ "obj-18", 1 ],
									"disabled" : 0,
									"hidden" : 0,
									"midpoints" : [ 284.5, 202.709076, 402.0, 202.709076 ],
									"source" : [ "obj-8", 0 ]
								}

							}
, 							{
								"patchline" : 								{
									"destination" : [ "obj-17", 0 ],
									"disabled" : 0,
									"hidden" : 0,
									"midpoints" : [ 284.5, 128.07692, 530.5, 128.07692 ],
									"source" : [ "obj-9", 0 ]
								}

							}
, 							{
								"patchline" : 								{
									"destination" : [ "obj-21", 1 ],
									"disabled" : 0,
									"hidden" : 0,
									"midpoints" : [ 284.5, 162.07692, 402.0, 162.07692 ],
									"source" : [ "obj-9", 0 ]
								}

							}
 ],
						"styles" : [ 							{
								"name" : "messageGold",
								"default" : 								{
									"fontsize" : [ 12.059008 ],
									"bgfillcolor" : 									{
										"type" : "gradient",
										"color" : [ 0.290196, 0.309804, 0.301961, 1.0 ],
										"color1" : [ 0.764706, 0.592157, 0.101961, 1.0 ],
										"color2" : [ 0.290196, 0.309804, 0.301961, 1.0 ],
										"angle" : 270.0,
										"proportion" : 0.39,
										"autogradient" : 0
									}

								}
,
								"parentstyle" : "",
								"multi" : 0
							}
, 							{
								"name" : "messageGreen",
								"default" : 								{
									"bgfillcolor" : 									{
										"type" : "color",
										"color" : [ 0.043137, 0.364706, 0.094118, 1.0 ],
										"color1" : [ 0.435294, 0.462745, 0.498039, 1.0 ],
										"color2" : [ 0.290196, 0.309804, 0.301961, 1.0 ],
										"angle" : 270.0,
										"proportion" : 0.39,
										"autogradient" : 0
									}

								}
,
								"parentstyle" : "",
								"multi" : 0
							}
, 							{
								"name" : "messageYellow",
								"default" : 								{
									"bgfillcolor" : 									{
										"type" : "gradient",
										"color" : [ 0.290196, 0.309804, 0.301961, 1.0 ],
										"color1" : [ 0.878792, 0.804818, 0.097893, 1.0 ],
										"color2" : [ 0.290196, 0.309804, 0.301961, 1.0 ],
										"angle" : 270.0,
										"proportion" : 0.39,
										"autogradient" : 0
									}

								}
,
								"parentstyle" : "",
								"multi" : 0
							}
, 							{
								"name" : "newobjBlue",
								"default" : 								{
									"accentcolor" : [ 0.317647, 0.654902, 0.976471, 1.0 ]
								}
,
								"parentstyle" : "",
								"multi" : 0
							}
, 							{
								"name" : "newobjYellow",
								"default" : 								{
									"accentcolor" : [ 0.82517, 0.78181, 0.059545, 1.0 ],
									"fontsize" : [ 12.059008 ]
								}
,
								"parentstyle" : "",
								"multi" : 0
							}
, 							{
								"name" : "numberGold",
								"default" : 								{
									"accentcolor" : [ 0.764706, 0.592157, 0.101961, 1.0 ]
								}
,
								"parentstyle" : "",
								"multi" : 0
							}
, 							{
								"name" : "toggleRed",
								"default" : 								{
									"bgcolor" : [ 0.665086, 0.106606, 0.136815, 0.75 ]
								}
,
								"parentstyle" : "",
								"multi" : 0
							}
 ],
						"bgfillcolor_type" : "gradient",
						"bgfillcolor_color1" : [ 0.454902, 0.462745, 0.482353, 1.0 ],
						"bgfillcolor_color2" : [ 0.290196, 0.309804, 0.301961, 1.0 ],
						"bgfillcolor_color" : [ 0.290196, 0.309804, 0.301961, 1.0 ],
						"bgfillcolor_angle" : 270.0,
						"bgfillcolor_proportion" : 0.39
					}
,
					"patching_rect" : [ 105.0, 230.573029, 134.0, 22.0 ],
					"saved_object_attributes" : 					{
						"description" : "",
						"digest" : "",
						"globalpatchername" : "",
						"style" : "",
						"tags" : ""
					}
,
					"style" : "",
					"text" : "p phase_vocoder"
				}

			}
, 			{
				"box" : 				{
					"id" : "obj-3",
					"maxclass" : "newobj",
					"numinlets" : 0,
					"numoutlets" : 0,
					"patcher" : 					{
						"fileversion" : 1,
						"appversion" : 						{
							"major" : 7,
							"minor" : 0,
							"revision" : 0,
							"architecture" : "x86",
							"modernui" : 1
						}
,
						"rect" : [ 34.0, 34.0, 572.0, 323.0 ],
						"bglocked" : 0,
						"openinpresentation" : 0,
						"default_fontsize" : 12.0,
						"default_fontface" : 0,
						"default_fontname" : "Arial",
						"gridonopen" : 0,
						"gridsize" : [ 15.0, 15.0 ],
						"gridsnaponopen" : 0,
						"statusbarvisible" : 2,
						"toolbarvisible" : 1,
						"lefttoolbarpinned" : 0,
						"toptoolbarpinned" : 0,
						"righttoolbarpinned" : 0,
						"bottomtoolbarpinned" : 0,
						"toolbars_unpinned_last_save" : 0,
						"tallnewobj" : 1,
						"boxanimatetime" : 200,
						"enablehscroll" : 1,
						"enablevscroll" : 1,
						"devicewidth" : 0.0,
						"description" : "",
						"digest" : "",
						"tags" : "",
						"style" : "",
						"boxes" : [ 							{
								"box" : 								{
									"id" : "obj-14",
									"interpinlet" : 1,
									"maxclass" : "gain~",
									"numinlets" : 2,
									"numoutlets" : 2,
									"orientation" : 2,
									"outlettype" : [ "signal", "int" ],
									"parameter_enable" : 0,
									"patching_rect" : [ 101.808189, 155.543152, 23.0, 68.0 ],
									"style" : ""
								}

							}
, 							{
								"box" : 								{
									"fontname" : "Arial",
									"fontsize" : 11.595187,
									"id" : "obj-13",
									"linecount" : 5,
									"maxclass" : "comment",
									"numinlets" : 1,
									"numoutlets" : 0,
									"patching_rect" : [ 268.0, 46.441628, 212.0, 71.0 ],
									"style" : "",
									"text" : "This is an example of amplitude-only convolution - it modifies the amplitudes of one sound using the amplitudes of another.  It does not modify the harmonic or pitch content of the sound."
								}

							}
, 							{
								"box" : 								{
									"fontname" : "Arial",
									"fontsize" : 11.595187,
									"id" : "obj-1",
									"maxclass" : "comment",
									"numinlets" : 1,
									"numoutlets" : 0,
									"patching_rect" : [ 5.0, 12.0, 126.0, 19.0 ],
									"style" : "",
									"text" : "convolution using pfft~"
								}

							}
, 							{
								"box" : 								{
									"fontname" : "Arial",
									"fontsize" : 11.595187,
									"id" : "obj-2",
									"maxclass" : "comment",
									"numinlets" : 1,
									"numoutlets" : 0,
									"patching_rect" : [ 16.0, 158.152283, 68.0, 19.0 ],
									"style" : "",
									"text" : "start audio."
								}

							}
, 							{
								"box" : 								{
									"fontname" : "Arial",
									"fontsize" : 11.595187,
									"id" : "obj-3",
									"maxclass" : "comment",
									"numinlets" : 1,
									"numoutlets" : 0,
									"patching_rect" : [ 145.0, 9.0, 106.0, 19.0 ],
									"style" : "",
									"text" : "• open a soundfile."
								}

							}
, 							{
								"box" : 								{
									"id" : "obj-4",
									"maxclass" : "toggle",
									"numinlets" : 1,
									"numoutlets" : 1,
									"outlettype" : [ "int" ],
									"parameter_enable" : 0,
									"patching_rect" : [ 195.733368, 29.0, 24.0, 24.0 ],
									"presentation_rect" : [ 182.0, 29.0, 24.0, 24.0 ],
									"style" : "toggleGreen"
								}

							}
, 							{
								"box" : 								{
									"id" : "obj-5",
									"maxclass" : "message",
									"numinlets" : 2,
									"numoutlets" : 1,
									"outlettype" : [ "" ],
									"patching_rect" : [ 152.829269, 29.0, 38.0, 22.0 ],
									"style" : "messageGold",
									"text" : "open"
								}

							}
, 							{
								"box" : 								{
									"fontname" : "Arial",
									"fontsize" : 11.595187,
									"id" : "obj-6",
									"maxclass" : "newobj",
									"numinlets" : 2,
									"numoutlets" : 2,
									"outlettype" : [ "signal", "bang" ],
									"patching_rect" : [ 152.829269, 61.614212, 48.0, 25.0 ],
									"saved_object_attributes" : 									{
										"basictuning" : 440,
										"followglobaltempo" : 0,
										"formant" : [ 1.0 ],
										"formantcorrection" : 0,
										"mode" : "basic",
										"originallength" : [ 0.0, "ticks" ],
										"originaltempo" : 120.0,
										"pitchcorrection" : 0,
										"quality" : "basic",
										"timestretch" : [ 0 ]
									}
,
									"style" : "",
									"text" : "sfplay~"
								}

							}
, 							{
								"box" : 								{
									"id" : "obj-7",
									"maxclass" : "message",
									"numinlets" : 2,
									"numoutlets" : 1,
									"outlettype" : [ "" ],
									"patching_rect" : [ 32.233982, 211.639587, 34.0, 22.0 ],
									"style" : "messageYellow",
									"text" : "stop"
								}

							}
, 							{
								"box" : 								{
									"id" : "obj-8",
									"maxclass" : "message",
									"numinlets" : 2,
									"numoutlets" : 1,
									"outlettype" : [ "" ],
									"patching_rect" : [ 16.0, 184.243652, 75.0, 22.0 ],
									"style" : "messageGreen",
									"text" : "startwindow"
								}

							}
, 							{
								"box" : 								{
									"fontname" : "Arial",
									"fontsize" : 11.595187,
									"id" : "obj-9",
									"maxclass" : "newobj",
									"numinlets" : 2,
									"numoutlets" : 0,
									"patching_rect" : [ 101.808189, 253.385788, 36.0, 25.0 ],
									"style" : "",
									"text" : "dac~"
								}

							}
, 							{
								"box" : 								{
									"id" : "obj-10",
									"maxclass" : "newobj",
									"numinlets" : 4,
									"numoutlets" : 2,
									"outlettype" : [ "signal", "signal" ],
									"patching_rect" : [ 101.808189, 124.233505, 156.0, 26.0 ],
									"style" : "newobjYellow",
									"text" : "pfft~ convolve4~ 1024 2"
								}

							}
, 							{
								"box" : 								{
									"fontname" : "Arial",
									"fontsize" : 11.595187,
									"id" : "obj-11",
									"maxclass" : "newobj",
									"numinlets" : 1,
									"numoutlets" : 2,
									"outlettype" : [ "signal", "signal" ],
									"patching_rect" : [ 101.808189, 69.441628, 36.0, 25.0 ],
									"style" : "",
									"text" : "adc~"
								}

							}
, 							{
								"box" : 								{
									"fontname" : "Arial",
									"fontsize" : 11.595187,
									"id" : "obj-12",
									"linecount" : 3,
									"maxclass" : "comment",
									"numinlets" : 1,
									"numoutlets" : 0,
									"patching_rect" : [ 142.393143, 162.065994, 178.0, 45.0 ],
									"style" : "",
									"text" : "• a pfft~ subpatcher which takes two input signals and multiplies them."
								}

							}
 ],
						"lines" : [ 							{
								"patchline" : 								{
									"destination" : [ "obj-14", 0 ],
									"disabled" : 0,
									"hidden" : 0,
									"source" : [ "obj-10", 0 ]
								}

							}
, 							{
								"patchline" : 								{
									"color" : [ 0.156863, 0.8, 0.54902, 1.0 ],
									"destination" : [ "obj-10", 2 ],
									"disabled" : 0,
									"hidden" : 0,
									"midpoints" : [ 111.308189, 105.969543, 202.641525, 105.969543 ],
									"source" : [ "obj-11", 0 ]
								}

							}
, 							{
								"patchline" : 								{
									"color" : [ 0.156863, 0.8, 0.54902, 1.0 ],
									"destination" : [ "obj-10", 0 ],
									"disabled" : 0,
									"hidden" : 0,
									"source" : [ "obj-11", 0 ]
								}

							}
, 							{
								"patchline" : 								{
									"destination" : [ "obj-9", 1 ],
									"disabled" : 0,
									"hidden" : 0,
									"midpoints" : [ 111.308189, 227.294418, 128.308197, 227.294418 ],
									"source" : [ "obj-14", 0 ]
								}

							}
, 							{
								"patchline" : 								{
									"destination" : [ "obj-9", 0 ],
									"disabled" : 0,
									"hidden" : 0,
									"source" : [ "obj-14", 0 ]
								}

							}
, 							{
								"patchline" : 								{
									"destination" : [ "obj-6", 0 ],
									"disabled" : 0,
									"hidden" : 0,
									"midpoints" : [ 205.233368, 57.700508, 162.329269, 57.700508 ],
									"source" : [ "obj-4", 0 ]
								}

							}
, 							{
								"patchline" : 								{
									"destination" : [ "obj-6", 0 ],
									"disabled" : 0,
									"hidden" : 0,
									"source" : [ "obj-5", 0 ]
								}

							}
, 							{
								"patchline" : 								{
									"color" : [ 0.4, 0.4, 0.8, 1.0 ],
									"destination" : [ "obj-10", 3 ],
									"disabled" : 0,
									"hidden" : 0,
									"midpoints" : [ 162.329269, 96.837563, 248.308197, 96.837563 ],
									"source" : [ "obj-6", 0 ]
								}

							}
, 							{
								"patchline" : 								{
									"color" : [ 0.4, 0.4, 0.8, 1.0 ],
									"destination" : [ "obj-10", 1 ],
									"disabled" : 0,
									"hidden" : 0,
									"source" : [ "obj-6", 0 ]
								}

							}
, 							{
								"patchline" : 								{
									"destination" : [ "obj-9", 0 ],
									"disabled" : 0,
									"hidden" : 0,
									"midpoints" : [ 41.733982, 241.644669, 111.308189, 241.644669 ],
									"source" : [ "obj-7", 0 ]
								}

							}
, 							{
								"patchline" : 								{
									"destination" : [ "obj-9", 0 ],
									"disabled" : 0,
									"hidden" : 0,
									"midpoints" : [ 25.5, 241.644669, 111.308189, 241.644669 ],
									"source" : [ "obj-8", 0 ]
								}

							}
 ],
						"styles" : [ 							{
								"name" : "messageGold",
								"default" : 								{
									"fontsize" : [ 12.059008 ],
									"bgfillcolor" : 									{
										"type" : "gradient",
										"color" : [ 0.290196, 0.309804, 0.301961, 1.0 ],
										"color1" : [ 0.764706, 0.592157, 0.101961, 1.0 ],
										"color2" : [ 0.290196, 0.309804, 0.301961, 1.0 ],
										"angle" : 270.0,
										"proportion" : 0.39,
										"autogradient" : 0
									}

								}
,
								"parentstyle" : "",
								"multi" : 0
							}
, 							{
								"name" : "messageGreen",
								"default" : 								{
									"bgfillcolor" : 									{
										"type" : "color",
										"color" : [ 0.043137, 0.364706, 0.094118, 1.0 ],
										"color1" : [ 0.435294, 0.462745, 0.498039, 1.0 ],
										"color2" : [ 0.290196, 0.309804, 0.301961, 1.0 ],
										"angle" : 270.0,
										"proportion" : 0.39,
										"autogradient" : 0
									}

								}
,
								"parentstyle" : "",
								"multi" : 0
							}
, 							{
								"name" : "messageYellow",
								"default" : 								{
									"bgfillcolor" : 									{
										"type" : "gradient",
										"color" : [ 0.290196, 0.309804, 0.301961, 1.0 ],
										"color1" : [ 0.878792, 0.804818, 0.097893, 1.0 ],
										"color2" : [ 0.290196, 0.309804, 0.301961, 1.0 ],
										"angle" : 270.0,
										"proportion" : 0.39,
										"autogradient" : 0
									}

								}
,
								"parentstyle" : "",
								"multi" : 0
							}
, 							{
								"name" : "newobjYellow",
								"default" : 								{
									"accentcolor" : [ 0.82517, 0.78181, 0.059545, 1.0 ],
									"fontsize" : [ 12.059008 ]
								}
,
								"parentstyle" : "",
								"multi" : 0
							}
, 							{
								"name" : "toggleGreen",
								"default" : 								{
									"bgcolor" : [ 0.133674, 0.354866, 0.236742, 0.75 ]
								}
,
								"parentstyle" : "",
								"multi" : 0
							}
 ],
						"bgfillcolor_type" : "gradient",
						"bgfillcolor_color1" : [ 0.454902, 0.462745, 0.482353, 1.0 ],
						"bgfillcolor_color2" : [ 0.290196, 0.309804, 0.301961, 1.0 ],
						"bgfillcolor_color" : [ 0.290196, 0.309804, 0.301961, 1.0 ],
						"bgfillcolor_angle" : 270.0,
						"bgfillcolor_proportion" : 0.39
					}
,
					"patching_rect" : [ 105.0, 196.546829, 134.0, 22.0 ],
					"saved_object_attributes" : 					{
						"description" : "",
						"digest" : "",
						"globalpatchername" : "",
						"style" : "",
						"tags" : ""
					}
,
					"style" : "",
					"text" : "p convolution"
				}

			}
, 			{
				"box" : 				{
					"id" : "obj-4",
					"maxclass" : "newobj",
					"numinlets" : 0,
					"numoutlets" : 0,
					"patcher" : 					{
						"fileversion" : 1,
						"appversion" : 						{
							"major" : 7,
							"minor" : 0,
							"revision" : 0,
							"architecture" : "x86",
							"modernui" : 1
						}
,
						"rect" : [ 34.0, 34.0, 528.0, 374.0 ],
						"bglocked" : 0,
						"openinpresentation" : 0,
						"default_fontsize" : 12.0,
						"default_fontface" : 0,
						"default_fontname" : "Arial",
						"gridonopen" : 0,
						"gridsize" : [ 15.0, 15.0 ],
						"gridsnaponopen" : 0,
						"statusbarvisible" : 2,
						"toolbarvisible" : 1,
						"lefttoolbarpinned" : 0,
						"toptoolbarpinned" : 0,
						"righttoolbarpinned" : 0,
						"bottomtoolbarpinned" : 0,
						"toolbars_unpinned_last_save" : 0,
						"tallnewobj" : 1,
						"boxanimatetime" : 200,
						"enablehscroll" : 1,
						"enablevscroll" : 1,
						"devicewidth" : 0.0,
						"description" : "",
						"digest" : "",
						"tags" : "",
						"style" : "",
						"boxes" : [ 							{
								"box" : 								{
									"id" : "obj-14",
									"interpinlet" : 1,
									"maxclass" : "gain~",
									"numinlets" : 2,
									"numoutlets" : 2,
									"orientation" : 2,
									"outlettype" : [ "signal", "int" ],
									"parameter_enable" : 0,
									"patching_rect" : [ 106.0, 206.876541, 26.0, 47.0 ],
									"style" : ""
								}

							}
, 							{
								"box" : 								{
									"fontname" : "Arial",
									"fontsize" : 11.595187,
									"id" : "obj-1",
									"maxclass" : "comment",
									"numinlets" : 1,
									"numoutlets" : 0,
									"patching_rect" : [ 23.0, 27.0, 121.0, 19.0 ],
									"style" : "",
									"text" : "noise gate using pfft~"
								}

							}
, 							{
								"box" : 								{
									"fontname" : "Arial",
									"fontsize" : 11.595187,
									"id" : "obj-2",
									"maxclass" : "comment",
									"numinlets" : 1,
									"numoutlets" : 0,
									"patching_rect" : [ 106.0, 65.271606, 99.0, 19.0 ],
									"style" : "",
									"text" : "open a soundfile."
								}

							}
, 							{
								"box" : 								{
									"fontname" : "Arial",
									"fontsize" : 11.595187,
									"id" : "obj-3",
									"maxclass" : "comment",
									"numinlets" : 1,
									"numoutlets" : 0,
									"patching_rect" : [ 29.0, 190.292175, 68.0, 19.0 ],
									"style" : "",
									"text" : "start audio."
								}

							}
, 							{
								"box" : 								{
									"id" : "obj-4",
									"maxclass" : "toggle",
									"numinlets" : 1,
									"numoutlets" : 1,
									"outlettype" : [ "int" ],
									"parameter_enable" : 0,
									"patching_rect" : [ 106.0, 95.888885, 24.0, 24.0 ],
									"presentation_rect" : [ 106.0, 81.0, 24.0, 24.0 ],
									"style" : "toggleGreen"
								}

							}
, 							{
								"box" : 								{
									"id" : "obj-5",
									"maxclass" : "message",
									"numinlets" : 2,
									"numoutlets" : 1,
									"outlettype" : [ "" ],
									"patching_rect" : [ 137.5, 95.888885, 38.0, 22.0 ],
									"style" : "messageGold",
									"text" : "open"
								}

							}
, 							{
								"box" : 								{
									"fontname" : "Arial",
									"fontsize" : 11.595187,
									"id" : "obj-6",
									"maxclass" : "newobj",
									"numinlets" : 2,
									"numoutlets" : 2,
									"outlettype" : [ "signal", "bang" ],
									"patching_rect" : [ 106.0, 132.884781, 48.0, 25.0 ],
									"saved_object_attributes" : 									{
										"basictuning" : 440,
										"followglobaltempo" : 0,
										"formant" : [ 1.0 ],
										"formantcorrection" : 0,
										"mode" : "basic",
										"originallength" : [ 0.0, "ticks" ],
										"originaltempo" : 120.0,
										"pitchcorrection" : 0,
										"quality" : "basic",
										"timestretch" : [ 0 ]
									}
,
									"style" : "",
									"text" : "sfplay~"
								}

							}
, 							{
								"box" : 								{
									"format" : 6,
									"id" : "obj-7",
									"maxclass" : "flonum",
									"maximum" : 2.0,
									"minimum" : 0.0,
									"numinlets" : 1,
									"numoutlets" : 2,
									"outlettype" : [ "", "bang" ],
									"parameter_enable" : 0,
									"patching_rect" : [ 218.0, 98.440331, 53.0, 22.0 ],
									"style" : "numberGold",
									"triscale" : 0.9
								}

							}
, 							{
								"box" : 								{
									"id" : "obj-8",
									"maxclass" : "message",
									"numinlets" : 2,
									"numoutlets" : 1,
									"outlettype" : [ "" ],
									"patching_rect" : [ 46.75, 243.633743, 34.0, 22.0 ],
									"style" : "messageYellow",
									"text" : "stop"
								}

							}
, 							{
								"box" : 								{
									"id" : "obj-9",
									"maxclass" : "message",
									"numinlets" : 2,
									"numoutlets" : 1,
									"outlettype" : [ "" ],
									"patching_rect" : [ 30.0, 219.633743, 75.0, 22.0 ],
									"style" : "messageGreen",
									"text" : "startwindow"
								}

							}
, 							{
								"box" : 								{
									"fontname" : "Arial",
									"fontsize" : 11.595187,
									"id" : "obj-10",
									"maxclass" : "newobj",
									"numinlets" : 2,
									"numoutlets" : 0,
									"patching_rect" : [ 89.0, 305.106995, 36.0, 25.0 ],
									"style" : "",
									"text" : "dac~"
								}

							}
, 							{
								"box" : 								{
									"id" : "obj-11",
									"maxclass" : "newobj",
									"numinlets" : 2,
									"numoutlets" : 1,
									"outlettype" : [ "signal" ],
									"patching_rect" : [ 106.0, 174.983536, 136.0, 26.0 ],
									"style" : "newobjYellow",
									"text" : "pfft~ ngate~ 1024 2"
								}

							}
, 							{
								"box" : 								{
									"fontname" : "Arial",
									"fontsize" : 11.595187,
									"id" : "obj-12",
									"maxclass" : "comment",
									"numinlets" : 1,
									"numoutlets" : 0,
									"patching_rect" : [ 272.0, 98.440331, 125.0, 19.0 ],
									"style" : "",
									"text" : "noise gate threshhold."
								}

							}
, 							{
								"box" : 								{
									"fontname" : "Arial",
									"fontsize" : 11.595187,
									"id" : "obj-13",
									"maxclass" : "comment",
									"numinlets" : 1,
									"numoutlets" : 0,
									"patching_rect" : [ 145.0, 217.082306, 155.0, 19.0 ],
									"style" : "",
									"text" : "simple noise reduction pfft~."
								}

							}
 ],
						"lines" : [ 							{
								"patchline" : 								{
									"destination" : [ "obj-14", 0 ],
									"disabled" : 0,
									"hidden" : 0,
									"source" : [ "obj-11", 0 ]
								}

							}
, 							{
								"patchline" : 								{
									"destination" : [ "obj-10", 1 ],
									"disabled" : 0,
									"hidden" : 0,
									"source" : [ "obj-14", 0 ]
								}

							}
, 							{
								"patchline" : 								{
									"destination" : [ "obj-10", 0 ],
									"disabled" : 0,
									"hidden" : 0,
									"midpoints" : [ 115.5, 285.971191, 98.5, 285.971191 ],
									"source" : [ "obj-14", 0 ]
								}

							}
, 							{
								"patchline" : 								{
									"destination" : [ "obj-6", 0 ],
									"disabled" : 0,
									"hidden" : 0,
									"source" : [ "obj-4", 0 ]
								}

							}
, 							{
								"patchline" : 								{
									"destination" : [ "obj-6", 0 ],
									"disabled" : 0,
									"hidden" : 0,
									"midpoints" : [ 147.0, 127.781891, 115.5, 127.781891 ],
									"source" : [ "obj-5", 0 ]
								}

							}
, 							{
								"patchline" : 								{
									"destination" : [ "obj-11", 0 ],
									"disabled" : 0,
									"hidden" : 0,
									"source" : [ "obj-6", 0 ]
								}

							}
, 							{
								"patchline" : 								{
									"destination" : [ "obj-11", 1 ],
									"disabled" : 0,
									"hidden" : 0,
									"source" : [ "obj-7", 0 ]
								}

							}
, 							{
								"patchline" : 								{
									"destination" : [ "obj-10", 0 ],
									"disabled" : 0,
									"hidden" : 0,
									"midpoints" : [ 56.25, 277.041138, 98.5, 277.041138 ],
									"source" : [ "obj-8", 0 ]
								}

							}
, 							{
								"patchline" : 								{
									"destination" : [ "obj-10", 0 ],
									"disabled" : 0,
									"hidden" : 0,
									"midpoints" : [ 39.5, 277.041138, 98.5, 277.041138 ],
									"source" : [ "obj-9", 0 ]
								}

							}
 ],
						"styles" : [ 							{
								"name" : "messageGold",
								"default" : 								{
									"fontsize" : [ 12.059008 ],
									"bgfillcolor" : 									{
										"type" : "gradient",
										"color" : [ 0.290196, 0.309804, 0.301961, 1.0 ],
										"color1" : [ 0.764706, 0.592157, 0.101961, 1.0 ],
										"color2" : [ 0.290196, 0.309804, 0.301961, 1.0 ],
										"angle" : 270.0,
										"proportion" : 0.39,
										"autogradient" : 0
									}

								}
,
								"parentstyle" : "",
								"multi" : 0
							}
, 							{
								"name" : "messageGreen",
								"default" : 								{
									"bgfillcolor" : 									{
										"type" : "color",
										"color" : [ 0.043137, 0.364706, 0.094118, 1.0 ],
										"color1" : [ 0.435294, 0.462745, 0.498039, 1.0 ],
										"color2" : [ 0.290196, 0.309804, 0.301961, 1.0 ],
										"angle" : 270.0,
										"proportion" : 0.39,
										"autogradient" : 0
									}

								}
,
								"parentstyle" : "",
								"multi" : 0
							}
, 							{
								"name" : "messageYellow",
								"default" : 								{
									"bgfillcolor" : 									{
										"type" : "gradient",
										"color" : [ 0.290196, 0.309804, 0.301961, 1.0 ],
										"color1" : [ 0.878792, 0.804818, 0.097893, 1.0 ],
										"color2" : [ 0.290196, 0.309804, 0.301961, 1.0 ],
										"angle" : 270.0,
										"proportion" : 0.39,
										"autogradient" : 0
									}

								}
,
								"parentstyle" : "",
								"multi" : 0
							}
, 							{
								"name" : "newobjYellow",
								"default" : 								{
									"accentcolor" : [ 0.82517, 0.78181, 0.059545, 1.0 ],
									"fontsize" : [ 12.059008 ]
								}
,
								"parentstyle" : "",
								"multi" : 0
							}
, 							{
								"name" : "numberGold",
								"default" : 								{
									"accentcolor" : [ 0.764706, 0.592157, 0.101961, 1.0 ]
								}
,
								"parentstyle" : "",
								"multi" : 0
							}
, 							{
								"name" : "toggleGreen",
								"default" : 								{
									"bgcolor" : [ 0.133674, 0.354866, 0.236742, 0.75 ]
								}
,
								"parentstyle" : "",
								"multi" : 0
							}
 ],
						"bgfillcolor_type" : "gradient",
						"bgfillcolor_color1" : [ 0.454902, 0.462745, 0.482353, 1.0 ],
						"bgfillcolor_color2" : [ 0.290196, 0.309804, 0.301961, 1.0 ],
						"bgfillcolor_color" : [ 0.290196, 0.309804, 0.301961, 1.0 ],
						"bgfillcolor_angle" : 270.0,
						"bgfillcolor_proportion" : 0.39
					}
,
					"patching_rect" : [ 105.0, 162.520599, 134.0, 22.0 ],
					"saved_object_attributes" : 					{
						"description" : "",
						"digest" : "",
						"globalpatchername" : "",
						"style" : "",
						"tags" : ""
					}
,
					"style" : "",
					"text" : "p noise_gate"
				}

			}
, 			{
				"box" : 				{
					"id" : "obj-5",
					"maxclass" : "newobj",
					"numinlets" : 0,
					"numoutlets" : 0,
					"patcher" : 					{
						"fileversion" : 1,
						"appversion" : 						{
							"major" : 7,
							"minor" : 0,
							"revision" : 0,
							"architecture" : "x86",
							"modernui" : 1
						}
,
						"rect" : [ 34.0, 34.0, 364.0, 313.0 ],
						"bglocked" : 0,
						"openinpresentation" : 0,
						"default_fontsize" : 12.0,
						"default_fontface" : 0,
						"default_fontname" : "Arial",
						"gridonopen" : 0,
						"gridsize" : [ 15.0, 15.0 ],
						"gridsnaponopen" : 0,
						"statusbarvisible" : 2,
						"toolbarvisible" : 1,
						"lefttoolbarpinned" : 0,
						"toptoolbarpinned" : 0,
						"righttoolbarpinned" : 0,
						"bottomtoolbarpinned" : 0,
						"toolbars_unpinned_last_save" : 0,
						"tallnewobj" : 1,
						"boxanimatetime" : 200,
						"enablehscroll" : 1,
						"enablevscroll" : 1,
						"devicewidth" : 0.0,
						"description" : "",
						"digest" : "",
						"tags" : "",
						"style" : "",
						"boxes" : [ 							{
								"box" : 								{
									"fontname" : "Arial",
									"fontsize" : 11.595187,
									"id" : "obj-1",
									"maxclass" : "comment",
									"numinlets" : 1,
									"numoutlets" : 0,
									"patching_rect" : [ 14.0, 6.410255, 118.0, 19.0 ],
									"style" : "",
									"text" : "crossover using pfft~"
								}

							}
, 							{
								"box" : 								{
									"id" : "obj-2",
									"maxclass" : "toggle",
									"numinlets" : 1,
									"numoutlets" : 1,
									"outlettype" : [ "int" ],
									"parameter_enable" : 0,
									"patching_rect" : [ 90.0, 57.119659, 24.0, 24.0 ],
									"presentation_rect" : [ 90.0, 63.0, 24.0, 24.0 ],
									"style" : "toggleGreen"
								}

							}
, 							{
								"box" : 								{
									"id" : "obj-3",
									"maxclass" : "message",
									"numinlets" : 2,
									"numoutlets" : 1,
									"outlettype" : [ "" ],
									"patching_rect" : [ 38.0, 242.128204, 34.0, 22.0 ],
									"style" : "messageYellow",
									"text" : "stop"
								}

							}
, 							{
								"box" : 								{
									"id" : "obj-4",
									"maxclass" : "message",
									"numinlets" : 2,
									"numoutlets" : 1,
									"outlettype" : [ "" ],
									"patching_rect" : [ 14.0, 212.418808, 75.0, 22.0 ],
									"style" : "messageGreen",
									"text" : "startwindow"
								}

							}
, 							{
								"box" : 								{
									"fontname" : "Arial",
									"fontsize" : 11.595187,
									"id" : "obj-5",
									"maxclass" : "newobj",
									"numinlets" : 2,
									"numoutlets" : 0,
									"patching_rect" : [ 91.0, 277.239319, 36.0, 25.0 ],
									"style" : "",
									"text" : "dac~"
								}

							}
, 							{
								"box" : 								{
									"id" : "obj-6",
									"interpinlet" : 1,
									"maxclass" : "gain~",
									"numinlets" : 2,
									"numoutlets" : 2,
									"orientation" : 2,
									"outlettype" : [ "signal", "int" ],
									"parameter_enable" : 0,
									"patching_rect" : [ 203.0, 163.803421, 23.0, 76.0 ],
									"style" : ""
								}

							}
, 							{
								"box" : 								{
									"format" : 6,
									"id" : "obj-8",
									"maxclass" : "flonum",
									"numinlets" : 1,
									"numoutlets" : 2,
									"outlettype" : [ "", "bang" ],
									"parameter_enable" : 0,
									"patching_rect" : [ 207.0, 57.119659, 48.0, 22.0 ],
									"style" : "numberGold",
									"triscale" : 0.9
								}

							}
, 							{
								"box" : 								{
									"id" : "obj-7",
									"interpinlet" : 1,
									"maxclass" : "gain~",
									"numinlets" : 2,
									"numoutlets" : 2,
									"orientation" : 2,
									"outlettype" : [ "signal", "int" ],
									"parameter_enable" : 0,
									"patching_rect" : [ 91.0, 163.803421, 23.0, 76.0 ],
									"style" : ""
								}

							}
, 							{
								"box" : 								{
									"id" : "obj-9",
									"maxclass" : "message",
									"numinlets" : 2,
									"numoutlets" : 1,
									"outlettype" : [ "" ],
									"patching_rect" : [ 117.0, 57.119659, 38.0, 22.0 ],
									"style" : "messageGold",
									"text" : "open"
								}

							}
, 							{
								"box" : 								{
									"fontname" : "Arial",
									"fontsize" : 11.595187,
									"id" : "obj-10",
									"maxclass" : "newobj",
									"numinlets" : 2,
									"numoutlets" : 2,
									"outlettype" : [ "signal", "bang" ],
									"patching_rect" : [ 90.0, 94.931625, 48.0, 25.0 ],
									"saved_object_attributes" : 									{
										"basictuning" : 440,
										"followglobaltempo" : 0,
										"formant" : [ 1.0 ],
										"formantcorrection" : 0,
										"mode" : "basic",
										"originallength" : [ 0.0, "ticks" ],
										"originaltempo" : 120.0,
										"pitchcorrection" : 0,
										"quality" : "basic",
										"timestretch" : [ 0 ]
									}
,
									"style" : "",
									"text" : "sfplay~"
								}

							}
, 							{
								"box" : 								{
									"id" : "obj-11",
									"maxclass" : "newobj",
									"numinlets" : 2,
									"numoutlets" : 2,
									"outlettype" : [ "signal", "signal" ],
									"patching_rect" : [ 90.0, 130.04274, 136.0, 26.0 ],
									"style" : "newobjYellow",
									"text" : "pfft~ xover~ 1024 2"
								}

							}
, 							{
								"box" : 								{
									"fontname" : "Arial",
									"fontsize" : 11.595187,
									"id" : "obj-12",
									"linecount" : 2,
									"maxclass" : "comment",
									"numinlets" : 1,
									"numoutlets" : 0,
									"patching_rect" : [ 256.0, 57.119659, 66.0, 32.0 ],
									"style" : "",
									"text" : "• crossover frequency."
								}

							}
, 							{
								"box" : 								{
									"fontname" : "Arial",
									"fontsize" : 11.595187,
									"id" : "obj-13",
									"maxclass" : "comment",
									"numinlets" : 1,
									"numoutlets" : 0,
									"patching_rect" : [ 90.0, 36.119659, 80.0, 19.0 ],
									"style" : "",
									"text" : "• soundfile in."
								}

							}
, 							{
								"box" : 								{
									"fontname" : "Arial",
									"fontsize" : 11.595187,
									"id" : "obj-14",
									"linecount" : 3,
									"maxclass" : "comment",
									"numinlets" : 1,
									"numoutlets" : 0,
									"patching_rect" : [ 230.5, 179.303421, 117.0, 45.0 ],
									"style" : "",
									"text" : "• set the volumes below/above the crossover frequency."
								}

							}
, 							{
								"box" : 								{
									"fontname" : "Arial",
									"fontsize" : 11.595187,
									"id" : "obj-15",
									"maxclass" : "comment",
									"numinlets" : 1,
									"numoutlets" : 0,
									"patching_rect" : [ 14.0, 181.358978, 75.0, 19.0 ],
									"style" : "",
									"text" : "• start audio."
								}

							}
 ],
						"lines" : [ 							{
								"patchline" : 								{
									"destination" : [ "obj-11", 0 ],
									"disabled" : 0,
									"hidden" : 0,
									"source" : [ "obj-10", 0 ]
								}

							}
, 							{
								"patchline" : 								{
									"destination" : [ "obj-6", 0 ],
									"disabled" : 0,
									"hidden" : 0,
									"source" : [ "obj-11", 1 ]
								}

							}
, 							{
								"patchline" : 								{
									"destination" : [ "obj-7", 0 ],
									"disabled" : 0,
									"hidden" : 0,
									"source" : [ "obj-11", 0 ]
								}

							}
, 							{
								"patchline" : 								{
									"destination" : [ "obj-10", 0 ],
									"disabled" : 0,
									"hidden" : 0,
									"source" : [ "obj-2", 0 ]
								}

							}
, 							{
								"patchline" : 								{
									"destination" : [ "obj-5", 0 ],
									"disabled" : 0,
									"hidden" : 0,
									"midpoints" : [ 47.5, 270.487183, 100.5, 270.487183 ],
									"source" : [ "obj-3", 0 ]
								}

							}
, 							{
								"patchline" : 								{
									"destination" : [ "obj-5", 0 ],
									"disabled" : 0,
									"hidden" : 0,
									"midpoints" : [ 23.5, 270.487183, 100.5, 270.487183 ],
									"source" : [ "obj-4", 0 ]
								}

							}
, 							{
								"patchline" : 								{
									"destination" : [ "obj-5", 1 ],
									"disabled" : 0,
									"hidden" : 0,
									"midpoints" : [ 212.5, 251.581207, 117.5, 251.581207 ],
									"source" : [ "obj-6", 0 ]
								}

							}
, 							{
								"patchline" : 								{
									"destination" : [ "obj-5", 0 ],
									"disabled" : 0,
									"hidden" : 0,
									"midpoints" : [ 212.5, 251.581207, 100.5, 251.581207 ],
									"source" : [ "obj-6", 0 ]
								}

							}
, 							{
								"patchline" : 								{
									"destination" : [ "obj-5", 1 ],
									"disabled" : 0,
									"hidden" : 0,
									"midpoints" : [ 100.5, 251.581207, 117.5, 251.581207 ],
									"source" : [ "obj-7", 0 ]
								}

							}
, 							{
								"patchline" : 								{
									"destination" : [ "obj-5", 0 ],
									"disabled" : 0,
									"hidden" : 0,
									"source" : [ "obj-7", 0 ]
								}

							}
, 							{
								"patchline" : 								{
									"destination" : [ "obj-11", 1 ],
									"disabled" : 0,
									"hidden" : 0,
									"source" : [ "obj-8", 0 ]
								}

							}
, 							{
								"patchline" : 								{
									"destination" : [ "obj-10", 0 ],
									"disabled" : 0,
									"hidden" : 0,
									"midpoints" : [ 126.5, 86.829063, 99.5, 86.829063 ],
									"source" : [ "obj-9", 0 ]
								}

							}
 ],
						"styles" : [ 							{
								"name" : "messageGold",
								"default" : 								{
									"fontsize" : [ 12.059008 ],
									"bgfillcolor" : 									{
										"type" : "gradient",
										"color" : [ 0.290196, 0.309804, 0.301961, 1.0 ],
										"color1" : [ 0.764706, 0.592157, 0.101961, 1.0 ],
										"color2" : [ 0.290196, 0.309804, 0.301961, 1.0 ],
										"angle" : 270.0,
										"proportion" : 0.39,
										"autogradient" : 0
									}

								}
,
								"parentstyle" : "",
								"multi" : 0
							}
, 							{
								"name" : "messageGreen",
								"default" : 								{
									"bgfillcolor" : 									{
										"type" : "color",
										"color" : [ 0.043137, 0.364706, 0.094118, 1.0 ],
										"color1" : [ 0.435294, 0.462745, 0.498039, 1.0 ],
										"color2" : [ 0.290196, 0.309804, 0.301961, 1.0 ],
										"angle" : 270.0,
										"proportion" : 0.39,
										"autogradient" : 0
									}

								}
,
								"parentstyle" : "",
								"multi" : 0
							}
, 							{
								"name" : "messageYellow",
								"default" : 								{
									"bgfillcolor" : 									{
										"type" : "gradient",
										"color" : [ 0.290196, 0.309804, 0.301961, 1.0 ],
										"color1" : [ 0.878792, 0.804818, 0.097893, 1.0 ],
										"color2" : [ 0.290196, 0.309804, 0.301961, 1.0 ],
										"angle" : 270.0,
										"proportion" : 0.39,
										"autogradient" : 0
									}

								}
,
								"parentstyle" : "",
								"multi" : 0
							}
, 							{
								"name" : "newobjYellow",
								"default" : 								{
									"accentcolor" : [ 0.82517, 0.78181, 0.059545, 1.0 ],
									"fontsize" : [ 12.059008 ]
								}
,
								"parentstyle" : "",
								"multi" : 0
							}
, 							{
								"name" : "numberGold",
								"default" : 								{
									"accentcolor" : [ 0.764706, 0.592157, 0.101961, 1.0 ]
								}
,
								"parentstyle" : "",
								"multi" : 0
							}
, 							{
								"name" : "toggleGreen",
								"default" : 								{
									"bgcolor" : [ 0.133674, 0.354866, 0.236742, 0.75 ]
								}
,
								"parentstyle" : "",
								"multi" : 0
							}
 ],
						"bgfillcolor_type" : "gradient",
						"bgfillcolor_color1" : [ 0.454902, 0.462745, 0.482353, 1.0 ],
						"bgfillcolor_color2" : [ 0.290196, 0.309804, 0.301961, 1.0 ],
						"bgfillcolor_color" : [ 0.290196, 0.309804, 0.301961, 1.0 ],
						"bgfillcolor_angle" : 270.0,
						"bgfillcolor_proportion" : 0.39
					}
,
					"patching_rect" : [ 105.0, 128.494385, 134.0, 22.0 ],
					"saved_object_attributes" : 					{
						"description" : "",
						"digest" : "",
						"globalpatchername" : "",
						"style" : "",
						"tags" : ""
					}
,
					"style" : "",
					"text" : "p crossover"
				}

			}
, 			{
				"box" : 				{
					"id" : "obj-6",
					"maxclass" : "newobj",
					"numinlets" : 0,
					"numoutlets" : 0,
					"patcher" : 					{
						"fileversion" : 1,
						"appversion" : 						{
							"major" : 7,
							"minor" : 0,
							"revision" : 0,
							"architecture" : "x86",
							"modernui" : 1
						}
,
						"rect" : [ 34.0, 34.0, 473.0, 298.0 ],
						"bglocked" : 0,
						"openinpresentation" : 0,
						"default_fontsize" : 12.0,
						"default_fontface" : 0,
						"default_fontname" : "Arial",
						"gridonopen" : 0,
						"gridsize" : [ 15.0, 15.0 ],
						"gridsnaponopen" : 0,
						"statusbarvisible" : 2,
						"toolbarvisible" : 1,
						"lefttoolbarpinned" : 0,
						"toptoolbarpinned" : 0,
						"righttoolbarpinned" : 0,
						"bottomtoolbarpinned" : 0,
						"toolbars_unpinned_last_save" : 0,
						"tallnewobj" : 1,
						"boxanimatetime" : 200,
						"enablehscroll" : 1,
						"enablevscroll" : 1,
						"devicewidth" : 0.0,
						"description" : "",
						"digest" : "",
						"tags" : "",
						"style" : "",
						"boxes" : [ 							{
								"box" : 								{
									"id" : "obj-13",
									"interpinlet" : 1,
									"maxclass" : "gain~",
									"numinlets" : 2,
									"numoutlets" : 2,
									"orientation" : 2,
									"outlettype" : [ "signal", "int" ],
									"parameter_enable" : 0,
									"patching_rect" : [ 94.0, 129.0, 26.0, 47.0 ],
									"style" : ""
								}

							}
, 							{
								"box" : 								{
									"fontname" : "Arial",
									"fontsize" : 11.595187,
									"id" : "obj-1",
									"maxclass" : "comment",
									"numinlets" : 1,
									"numoutlets" : 0,
									"patching_rect" : [ 25.0, 12.0, 135.0, 19.0 ],
									"style" : "",
									"text" : "multiplication using pfft~"
								}

							}
, 							{
								"box" : 								{
									"fontname" : "Arial",
									"fontsize" : 11.595187,
									"id" : "obj-2",
									"maxclass" : "comment",
									"numinlets" : 1,
									"numoutlets" : 0,
									"patching_rect" : [ 20.0, 123.0, 68.0, 19.0 ],
									"style" : "",
									"text" : "start audio"
								}

							}
, 							{
								"box" : 								{
									"fontname" : "Arial",
									"fontsize" : 11.595187,
									"id" : "obj-3",
									"maxclass" : "comment",
									"numinlets" : 1,
									"numoutlets" : 0,
									"patching_rect" : [ 242.0, 13.0, 106.0, 19.0 ],
									"style" : "",
									"text" : "open a soundfile"
								}

							}
, 							{
								"box" : 								{
									"id" : "obj-4",
									"maxclass" : "toggle",
									"numinlets" : 1,
									"numoutlets" : 1,
									"outlettype" : [ "int" ],
									"parameter_enable" : 0,
									"patching_rect" : [ 285.0, 35.0, 24.0, 24.0 ],
									"presentation_rect" : [ 285.0, 35.0, 24.0, 24.0 ],
									"style" : "toggleGreen"
								}

							}
, 							{
								"box" : 								{
									"id" : "obj-5",
									"maxclass" : "message",
									"numinlets" : 2,
									"numoutlets" : 1,
									"outlettype" : [ "" ],
									"patching_rect" : [ 241.0, 35.0, 38.0, 22.0 ],
									"style" : "messageGold",
									"text" : "open"
								}

							}
, 							{
								"box" : 								{
									"fontname" : "Arial",
									"fontsize" : 11.595187,
									"id" : "obj-6",
									"maxclass" : "newobj",
									"numinlets" : 2,
									"numoutlets" : 2,
									"outlettype" : [ "signal", "bang" ],
									"patching_rect" : [ 241.0, 63.0, 48.0, 25.0 ],
									"saved_object_attributes" : 									{
										"basictuning" : 440,
										"followglobaltempo" : 0,
										"formant" : [ 1.0 ],
										"formantcorrection" : 0,
										"mode" : "basic",
										"originallength" : [ 0.0, "ticks" ],
										"originaltempo" : 120.0,
										"pitchcorrection" : 0,
										"quality" : "basic",
										"timestretch" : [ 0 ]
									}
,
									"style" : "",
									"text" : "sfplay~"
								}

							}
, 							{
								"box" : 								{
									"id" : "obj-7",
									"maxclass" : "message",
									"numinlets" : 2,
									"numoutlets" : 1,
									"outlettype" : [ "" ],
									"patching_rect" : [ 34.0, 167.0, 34.0, 22.0 ],
									"style" : "messageYellow",
									"text" : "stop"
								}

							}
, 							{
								"box" : 								{
									"id" : "obj-8",
									"maxclass" : "message",
									"numinlets" : 2,
									"numoutlets" : 1,
									"outlettype" : [ "" ],
									"patching_rect" : [ 20.0, 144.0, 75.0, 22.0 ],
									"style" : "messageGreen",
									"text" : "startwindow"
								}

							}
, 							{
								"box" : 								{
									"fontname" : "Arial",
									"fontsize" : 11.595187,
									"id" : "obj-9",
									"maxclass" : "newobj",
									"numinlets" : 2,
									"numoutlets" : 0,
									"patching_rect" : [ 94.0, 204.0, 36.0, 25.0 ],
									"style" : "",
									"text" : "dac~"
								}

							}
, 							{
								"box" : 								{
									"id" : "obj-10",
									"maxclass" : "newobj",
									"numinlets" : 2,
									"numoutlets" : 1,
									"outlettype" : [ "signal" ],
									"patching_rect" : [ 94.0, 96.0, 173.0, 26.0 ],
									"style" : "newobjYellow",
									"text" : "pfft~ convolvefft~ 1024 2"
								}

							}
, 							{
								"box" : 								{
									"fontname" : "Arial",
									"fontsize" : 11.595187,
									"id" : "obj-11",
									"maxclass" : "newobj",
									"numinlets" : 1,
									"numoutlets" : 2,
									"outlettype" : [ "signal", "signal" ],
									"patching_rect" : [ 94.0, 63.0, 36.0, 25.0 ],
									"style" : "",
									"text" : "adc~"
								}

							}
, 							{
								"box" : 								{
									"fontname" : "Arial",
									"fontsize" : 11.595187,
									"id" : "obj-12",
									"linecount" : 2,
									"maxclass" : "comment",
									"numinlets" : 1,
									"numoutlets" : 0,
									"patching_rect" : [ 138.0, 135.0, 200.0, 32.0 ],
									"style" : "",
									"text" : "a pfft~ subpatcher which takes two input signals and multiplies them."
								}

							}
 ],
						"lines" : [ 							{
								"patchline" : 								{
									"destination" : [ "obj-13", 0 ],
									"disabled" : 0,
									"hidden" : 0,
									"source" : [ "obj-10", 0 ]
								}

							}
, 							{
								"patchline" : 								{
									"destination" : [ "obj-10", 0 ],
									"disabled" : 0,
									"hidden" : 0,
									"source" : [ "obj-11", 0 ]
								}

							}
, 							{
								"patchline" : 								{
									"destination" : [ "obj-9", 1 ],
									"disabled" : 0,
									"hidden" : 0,
									"midpoints" : [ 103.5, 186.0, 120.5, 186.0 ],
									"source" : [ "obj-13", 0 ]
								}

							}
, 							{
								"patchline" : 								{
									"destination" : [ "obj-9", 0 ],
									"disabled" : 0,
									"hidden" : 0,
									"source" : [ "obj-13", 0 ]
								}

							}
, 							{
								"patchline" : 								{
									"destination" : [ "obj-6", 0 ],
									"disabled" : 0,
									"hidden" : 0,
									"midpoints" : [ 294.5, 58.0, 250.5, 58.0 ],
									"source" : [ "obj-4", 0 ]
								}

							}
, 							{
								"patchline" : 								{
									"destination" : [ "obj-6", 0 ],
									"disabled" : 0,
									"hidden" : 0,
									"source" : [ "obj-5", 0 ]
								}

							}
, 							{
								"patchline" : 								{
									"destination" : [ "obj-10", 1 ],
									"disabled" : 0,
									"hidden" : 0,
									"source" : [ "obj-6", 0 ]
								}

							}
, 							{
								"patchline" : 								{
									"destination" : [ "obj-9", 0 ],
									"disabled" : 0,
									"hidden" : 0,
									"midpoints" : [ 43.5, 196.0, 103.5, 196.0 ],
									"source" : [ "obj-7", 0 ]
								}

							}
, 							{
								"patchline" : 								{
									"destination" : [ "obj-9", 0 ],
									"disabled" : 0,
									"hidden" : 0,
									"midpoints" : [ 29.5, 196.0, 103.5, 196.0 ],
									"source" : [ "obj-8", 0 ]
								}

							}
 ],
						"styles" : [ 							{
								"name" : "messageGold",
								"default" : 								{
									"fontsize" : [ 12.059008 ],
									"bgfillcolor" : 									{
										"type" : "gradient",
										"color" : [ 0.290196, 0.309804, 0.301961, 1.0 ],
										"color1" : [ 0.764706, 0.592157, 0.101961, 1.0 ],
										"color2" : [ 0.290196, 0.309804, 0.301961, 1.0 ],
										"angle" : 270.0,
										"proportion" : 0.39,
										"autogradient" : 0
									}

								}
,
								"parentstyle" : "",
								"multi" : 0
							}
, 							{
								"name" : "messageGreen",
								"default" : 								{
									"bgfillcolor" : 									{
										"type" : "color",
										"color" : [ 0.043137, 0.364706, 0.094118, 1.0 ],
										"color1" : [ 0.435294, 0.462745, 0.498039, 1.0 ],
										"color2" : [ 0.290196, 0.309804, 0.301961, 1.0 ],
										"angle" : 270.0,
										"proportion" : 0.39,
										"autogradient" : 0
									}

								}
,
								"parentstyle" : "",
								"multi" : 0
							}
, 							{
								"name" : "messageYellow",
								"default" : 								{
									"bgfillcolor" : 									{
										"type" : "gradient",
										"color" : [ 0.290196, 0.309804, 0.301961, 1.0 ],
										"color1" : [ 0.878792, 0.804818, 0.097893, 1.0 ],
										"color2" : [ 0.290196, 0.309804, 0.301961, 1.0 ],
										"angle" : 270.0,
										"proportion" : 0.39,
										"autogradient" : 0
									}

								}
,
								"parentstyle" : "",
								"multi" : 0
							}
, 							{
								"name" : "newobjYellow",
								"default" : 								{
									"accentcolor" : [ 0.82517, 0.78181, 0.059545, 1.0 ],
									"fontsize" : [ 12.059008 ]
								}
,
								"parentstyle" : "",
								"multi" : 0
							}
, 							{
								"name" : "toggleGreen",
								"default" : 								{
									"bgcolor" : [ 0.133674, 0.354866, 0.236742, 0.75 ]
								}
,
								"parentstyle" : "",
								"multi" : 0
							}
 ],
						"bgfillcolor_type" : "gradient",
						"bgfillcolor_color1" : [ 0.454902, 0.462745, 0.482353, 1.0 ],
						"bgfillcolor_color2" : [ 0.290196, 0.309804, 0.301961, 1.0 ],
						"bgfillcolor_color" : [ 0.290196, 0.309804, 0.301961, 1.0 ],
						"bgfillcolor_angle" : 270.0,
						"bgfillcolor_proportion" : 0.39
					}
,
					"patching_rect" : [ 105.0, 94.468163, 134.0, 22.0 ],
					"saved_object_attributes" : 					{
						"description" : "",
						"digest" : "",
						"globalpatchername" : "",
						"style" : "",
						"tags" : ""
					}
,
					"style" : "",
					"text" : "p 2_input_multiplication"
				}

			}
, 			{
				"box" : 				{
					"id" : "obj-7",
					"maxclass" : "newobj",
					"numinlets" : 0,
					"numoutlets" : 0,
					"patcher" : 					{
						"fileversion" : 1,
						"appversion" : 						{
							"major" : 7,
							"minor" : 0,
							"revision" : 0,
							"architecture" : "x86",
							"modernui" : 1
						}
,
						"rect" : [ 34.0, 34.0, 500.0, 224.0 ],
						"bglocked" : 0,
						"openinpresentation" : 0,
						"default_fontsize" : 12.0,
						"default_fontface" : 0,
						"default_fontname" : "Arial",
						"gridonopen" : 0,
						"gridsize" : [ 15.0, 15.0 ],
						"gridsnaponopen" : 0,
						"statusbarvisible" : 2,
						"toolbarvisible" : 1,
						"lefttoolbarpinned" : 0,
						"toptoolbarpinned" : 0,
						"righttoolbarpinned" : 0,
						"bottomtoolbarpinned" : 0,
						"toolbars_unpinned_last_save" : 0,
						"tallnewobj" : 1,
						"boxanimatetime" : 200,
						"enablehscroll" : 1,
						"enablevscroll" : 1,
						"devicewidth" : 0.0,
						"description" : "",
						"digest" : "",
						"tags" : "",
						"style" : "",
						"boxes" : [ 							{
								"box" : 								{
									"id" : "obj-9",
									"interpinlet" : 1,
									"maxclass" : "gain~",
									"numinlets" : 2,
									"numoutlets" : 2,
									"orientation" : 2,
									"outlettype" : [ "signal", "int" ],
									"parameter_enable" : 0,
									"patching_rect" : [ 116.0, 91.0, 26.0, 47.0 ],
									"style" : ""
								}

							}
, 							{
								"box" : 								{
									"fontname" : "Arial",
									"fontsize" : 11.595187,
									"id" : "obj-1",
									"maxclass" : "comment",
									"numinlets" : 1,
									"numoutlets" : 0,
									"patching_rect" : [ 166.0, 22.0, 115.0, 19.0 ],
									"style" : "",
									"text" : "a simple use of pfft~"
								}

							}
, 							{
								"box" : 								{
									"fontname" : "Arial",
									"fontsize" : 11.595187,
									"id" : "obj-2",
									"maxclass" : "comment",
									"numinlets" : 1,
									"numoutlets" : 0,
									"patching_rect" : [ 35.0, 94.0, 68.0, 19.0 ],
									"style" : "",
									"text" : "start audio"
								}

							}
, 							{
								"box" : 								{
									"id" : "obj-3",
									"maxclass" : "message",
									"numinlets" : 2,
									"numoutlets" : 1,
									"outlettype" : [ "" ],
									"patching_rect" : [ 52.75, 144.0, 34.0, 22.0 ],
									"style" : "messageYellow",
									"text" : "stop"
								}

							}
, 							{
								"box" : 								{
									"id" : "obj-4",
									"maxclass" : "message",
									"numinlets" : 2,
									"numoutlets" : 1,
									"outlettype" : [ "" ],
									"patching_rect" : [ 35.0, 116.0, 75.0, 22.0 ],
									"style" : "messageGreen",
									"text" : "startwindow"
								}

							}
, 							{
								"box" : 								{
									"fontname" : "Arial",
									"fontsize" : 11.595187,
									"id" : "obj-5",
									"maxclass" : "newobj",
									"numinlets" : 2,
									"numoutlets" : 0,
									"patching_rect" : [ 116.0, 172.0, 36.0, 25.0 ],
									"style" : "",
									"text" : "dac~"
								}

							}
, 							{
								"box" : 								{
									"id" : "obj-6",
									"maxclass" : "newobj",
									"numinlets" : 1,
									"numoutlets" : 1,
									"outlettype" : [ "signal" ],
									"patching_rect" : [ 116.0, 57.0, 125.0, 26.0 ],
									"style" : "newobjYellow",
									"text" : "pfft~ fftbasic~ 1024 2"
								}

							}
, 							{
								"box" : 								{
									"fontname" : "Arial",
									"fontsize" : 11.595187,
									"id" : "obj-7",
									"maxclass" : "newobj",
									"numinlets" : 1,
									"numoutlets" : 2,
									"outlettype" : [ "signal", "signal" ],
									"patching_rect" : [ 116.0, 20.0, 36.0, 25.0 ],
									"style" : "",
									"text" : "adc~"
								}

							}
, 							{
								"box" : 								{
									"fontname" : "Arial",
									"fontsize" : 11.595187,
									"id" : "obj-8",
									"linecount" : 2,
									"maxclass" : "comment",
									"numinlets" : 1,
									"numoutlets" : 0,
									"patching_rect" : [ 160.0, 96.0, 302.0, 32.0 ],
									"style" : "",
									"text" : "a simple pfft~ example: it loads the fft-subpatch fftbasic~ with a 1024 window size and a 2x overlap"
								}

							}
 ],
						"lines" : [ 							{
								"patchline" : 								{
									"destination" : [ "obj-5", 0 ],
									"disabled" : 0,
									"hidden" : 0,
									"midpoints" : [ 62.25, 169.0, 125.5, 169.0 ],
									"source" : [ "obj-3", 0 ]
								}

							}
, 							{
								"patchline" : 								{
									"destination" : [ "obj-5", 0 ],
									"disabled" : 0,
									"hidden" : 0,
									"midpoints" : [ 44.5, 169.0, 125.5, 169.0 ],
									"source" : [ "obj-4", 0 ]
								}

							}
, 							{
								"patchline" : 								{
									"destination" : [ "obj-9", 0 ],
									"disabled" : 0,
									"hidden" : 0,
									"source" : [ "obj-6", 0 ]
								}

							}
, 							{
								"patchline" : 								{
									"destination" : [ "obj-6", 0 ],
									"disabled" : 0,
									"hidden" : 0,
									"source" : [ "obj-7", 0 ]
								}

							}
, 							{
								"patchline" : 								{
									"destination" : [ "obj-5", 1 ],
									"disabled" : 0,
									"hidden" : 0,
									"midpoints" : [ 125.5, 153.0, 142.5, 153.0 ],
									"source" : [ "obj-9", 0 ]
								}

							}
, 							{
								"patchline" : 								{
									"destination" : [ "obj-5", 0 ],
									"disabled" : 0,
									"hidden" : 0,
									"source" : [ "obj-9", 0 ]
								}

							}
 ],
						"styles" : [ 							{
								"name" : "messageGreen",
								"default" : 								{
									"bgfillcolor" : 									{
										"type" : "color",
										"color" : [ 0.043137, 0.364706, 0.094118, 1.0 ],
										"color1" : [ 0.435294, 0.462745, 0.498039, 1.0 ],
										"color2" : [ 0.290196, 0.309804, 0.301961, 1.0 ],
										"angle" : 270.0,
										"proportion" : 0.39,
										"autogradient" : 0
									}

								}
,
								"parentstyle" : "",
								"multi" : 0
							}
, 							{
								"name" : "messageYellow",
								"default" : 								{
									"bgfillcolor" : 									{
										"type" : "gradient",
										"color" : [ 0.290196, 0.309804, 0.301961, 1.0 ],
										"color1" : [ 0.878792, 0.804818, 0.097893, 1.0 ],
										"color2" : [ 0.290196, 0.309804, 0.301961, 1.0 ],
										"angle" : 270.0,
										"proportion" : 0.39,
										"autogradient" : 0
									}

								}
,
								"parentstyle" : "",
								"multi" : 0
							}
, 							{
								"name" : "newobjYellow",
								"default" : 								{
									"accentcolor" : [ 0.82517, 0.78181, 0.059545, 1.0 ],
									"fontsize" : [ 12.059008 ]
								}
,
								"parentstyle" : "",
								"multi" : 0
							}
 ],
						"bgfillcolor_type" : "gradient",
						"bgfillcolor_color1" : [ 0.454902, 0.462745, 0.482353, 1.0 ],
						"bgfillcolor_color2" : [ 0.290196, 0.309804, 0.301961, 1.0 ],
						"bgfillcolor_color" : [ 0.290196, 0.309804, 0.301961, 1.0 ],
						"bgfillcolor_angle" : 270.0,
						"bgfillcolor_proportion" : 0.39
					}
,
					"patching_rect" : [ 105.0, 60.441944, 134.0, 22.0 ],
					"saved_object_attributes" : 					{
						"description" : "",
						"digest" : "",
						"globalpatchername" : "",
						"style" : "",
						"tags" : ""
					}
,
					"style" : "",
					"text" : "p simple_pfft~"
				}

			}
 ],
		"lines" : [  ],
		"dependency_cache" : [ 			{
				"name" : "fftbasic~.maxpat",
				"bootpath" : "~/Desktop/docs/tutorial-new-patchers/msp-new",
				"patcherrelativepath" : ".",
				"type" : "JSON",
				"implicit" : 1
			}
, 			{
				"name" : "convolvefft~.maxpat",
				"bootpath" : "~/Desktop/docs/tutorial-new-patchers/msp-new",
				"patcherrelativepath" : ".",
				"type" : "JSON",
				"implicit" : 1
			}
, 			{
				"name" : "xover~.maxpat",
				"bootpath" : "~/Desktop/docs/tutorial-new-patchers/msp-new",
				"patcherrelativepath" : ".",
				"type" : "JSON",
				"implicit" : 1
			}
, 			{
				"name" : "ngate~.maxpat",
				"bootpath" : "~/Desktop/docs/tutorial-new-patchers/msp-new",
				"patcherrelativepath" : ".",
				"type" : "JSON",
				"implicit" : 1
			}
, 			{
				"name" : "convolve4~.maxpat",
				"bootpath" : "~/Desktop/docs/tutorial-new-patchers/msp-new",
				"patcherrelativepath" : ".",
				"type" : "JSON",
				"implicit" : 1
			}
, 			{
				"name" : "mypvoc~.maxpat",
				"bootpath" : "~/Desktop/docs/tutorial-new-patchers/msp-new",
				"patcherrelativepath" : ".",
				"type" : "JSON",
				"implicit" : 1
			}
 ],
		"embedsnapshot" : 0,
		"styles" : [ 			{
				"name" : "buttonGreen",
				"default" : 				{
					"bgcolor" : [ 0.439216, 0.74902, 0.254902, 1.0 ]
				}
,
				"parentstyle" : "",
				"multi" : 0
			}
, 			{
				"name" : "messageYellow",
				"default" : 				{
					"bgfillcolor" : 					{
						"type" : "gradient",
						"color" : [ 0.290196, 0.309804, 0.301961, 1.0 ],
						"color1" : [ 0.878792, 0.804818, 0.097893, 1.0 ],
						"color2" : [ 0.290196, 0.309804, 0.301961, 1.0 ],
						"angle" : 270.0,
						"proportion" : 0.39,
						"autogradient" : 0
					}

				}
,
				"parentstyle" : "",
				"multi" : 0
			}
, 			{
				"name" : "newobjBlue",
				"default" : 				{
					"accentcolor" : [ 0.317647, 0.654902, 0.976471, 1.0 ]
				}
,
				"parentstyle" : "",
				"multi" : 0
			}
, 			{
				"name" : "newobjRed",
				"default" : 				{
					"accentcolor" : [ 0.784314, 0.145098, 0.023529, 1.0 ]
				}
,
				"parentstyle" : "",
				"multi" : 0
			}
, 			{
				"name" : "newobjYellow",
				"default" : 				{
					"accentcolor" : [ 0.82517, 0.78181, 0.059545, 1.0 ],
					"fontsize" : [ 12.059008 ]
				}
,
				"parentstyle" : "",
				"multi" : 0
			}
, 			{
				"name" : "numberGold",
				"default" : 				{
					"accentcolor" : [ 0.764706, 0.592157, 0.101961, 1.0 ]
				}
,
				"parentstyle" : "",
				"multi" : 0
			}
, 			{
				"name" : "panelBlue",
				"default" : 				{
					"bgfillcolor" : 					{
						"type" : "color",
						"color" : [ 0.317647, 0.654902, 0.976471, 0.25 ],
						"color1" : [ 0.435294, 0.462745, 0.498039, 1.0 ],
						"color2" : [ 0.290196, 0.309804, 0.301961, 1.0 ],
						"angle" : 270.0,
						"proportion" : 0.39,
						"autogradient" : 0
					}

				}
,
				"parentstyle" : "",
				"multi" : 0
			}
, 			{
				"name" : "panelGold",
				"default" : 				{
					"bgfillcolor" : 					{
						"type" : "color",
						"color" : [ 0.639216, 0.458824, 0.070588, 0.25 ],
						"color1" : [ 0.435294, 0.462745, 0.498039, 1.0 ],
						"color2" : [ 0.290196, 0.309804, 0.301961, 1.0 ],
						"angle" : 270.0,
						"proportion" : 0.39,
						"autogradient" : 0
					}

				}
,
				"parentstyle" : "",
				"multi" : 0
			}
, 			{
				"name" : "panelGreen",
				"default" : 				{
					"bgfillcolor" : 					{
						"type" : "color",
						"color" : [ 0.439216, 0.74902, 0.254902, 0.25 ],
						"color1" : [ 0.435294, 0.462745, 0.498039, 1.0 ],
						"color2" : [ 0.290196, 0.309804, 0.301961, 1.0 ],
						"angle" : 270.0,
						"proportion" : 0.39,
						"autogradient" : 0
					}

				}
,
				"parentstyle" : "",
				"multi" : 0
			}
, 			{
				"name" : "scope~001",
				"default" : 				{
					"accentcolor" : [ 0.439216, 0.447059, 0.47451, 1.0 ],
					"color" : [ 0.960784, 0.827451, 0.156863, 1.0 ]
				}
,
				"parentstyle" : "",
				"multi" : 0
			}
, 			{
				"name" : "toggleGreen",
				"default" : 				{
					"bgcolor" : [ 0.133674, 0.354866, 0.236742, 0.75 ]
				}
,
				"parentstyle" : "",
				"multi" : 0
			}
, 			{
				"name" : "umenuGold",
				"default" : 				{
					"bgfillcolor" : 					{
						"type" : "gradient",
						"color" : [ 0.290196, 0.309804, 0.301961, 1.0 ],
						"color1" : [ 0.764706, 0.592157, 0.101961, 1.0 ],
						"color2" : [ 0.290196, 0.309804, 0.301961, 1.0 ],
						"angle" : 270.0,
						"proportion" : 0.39,
						"autogradient" : 0
					}

				}
,
				"parentstyle" : "",
				"multi" : 0
			}
 ]
	}

}
